<svg xmlns="http://www.w3.org/2000/svg" width="100" height="90" viewBox="0 0 100 90" version="1.1">
  <path
     d="M 30.029355,0.8518076 A 9.5584495,9.5584495 0 0 0 21.751318,5.6301723 L 1.7806731,40.221639 a 9.5584495,9.5584495 0 0 0 0,9.558739 L 21.751318,84.369825 a 9.5584495,9.5584495 0 0 0 8.278037,4.778367 h 39.941301 a 9.5584495,9.5584495 0 0 0 8.278017,-4.778367 L 98.219327,49.780378 a 9.5584495,9.5584495 0 0 0 0,-9.558739 L 78.248673,5.6301723 A 9.5584495,9.5584495 0 0 0 69.970656,0.8518076 Z M 49.910847,18.621728 a 3.1861504,3.1861504 0 0 1 3.025466,1.949442 l 14.229723,33.799142 a 6.3723023,6.3723023 0 0 1 -0.352782,5.657839 L 61.037909,70.03272 a 6.3723023,6.3723023 0 0 1 -5.520038,3.185552 H 44.481907 A 6.3723023,6.3723023 0 0 1 38.961868,70.03272 L 33.186545,60.028151 A 6.3723023,6.3723023 0 0 1 32.833949,54.370312 L 47.063691,20.57117 a 3.1861504,3.1861504 0 0 1 2.847156,-1.949442 z" />
</svg>
