<svg width="100%" height="100%" viewBox="0 0 460 614" version="1.1" xmlns="http://www.w3.org/2000/svg" xmlns:xlink="http://www.w3.org/1999/xlink" xml:space="preserve" style="fill-rule:evenodd;clip-rule:evenodd;stroke-linejoin:round;stroke-miterlimit:2;">
  <rect x="176" y="419.301" width="20" height="20"/>
  <rect x="198" y="419.301" width="20" height="20"/>
  <rect x="154" y="397.274" width="20" height="20"/>
  <rect x="220" y="397.274" width="20" height="20"/>
  <rect x="132" y="375.246" width="20" height="20"/>
  <rect x="154" y="375.246" width="20" height="20"/>
  <rect x="220" y="375.246" width="20" height="20"/>
  <rect x="242" y="375.246" width="20" height="20"/>
  <rect x="88" y="353.219" width="20" height="20"/>
  <rect x="110" y="353.219" width="20" height="20"/>
  <rect x="132" y="353.219" width="20" height="20"/>
  <rect x="154" y="353.219" width="20" height="20"/>
  <rect x="176" y="353.219" width="20" height="20"/>
  <rect x="198" y="353.219" width="20" height="20"/>
  <rect x="220" y="353.219" width="20" height="20"/>
  <rect x="242" y="353.219" width="20" height="20"/>
  <rect x="264" y="353.219" width="20" height="20"/>
  <rect x="286" y="353.219" width="20" height="20"/>
  <rect x="88" y="331.192" width="20" height="20"/>
  <rect x="110" y="331.192" width="20" height="20"/>
  <rect x="132" y="331.192" width="20" height="20"/>
  <rect x="154" y="331.192" width="20" height="20"/>
  <rect x="176" y="331.192" width="20" height="20"/>
  <rect x="198" y="331.192" width="20" height="20"/>
  <rect x="220" y="331.192" width="20" height="20"/>
  <rect x="242" y="331.192" width="20" height="20"/>
  <rect x="264" y="331.192" width="20" height="20"/>
  <rect x="286" y="331.192" width="20" height="20"/>
  <rect x="88" y="309.164" width="20" height="20"/>
  <rect x="110" y="309.164" width="20" height="20"/>
  <rect x="132" y="309.164" width="20" height="20"/>
  <rect x="154" y="309.164" width="20" height="20"/>
  <rect x="176" y="309.164" width="20" height="20"/>
  <rect x="198" y="309.164" width="20" height="20"/>
  <rect x="220" y="309.164" width="20" height="20"/>
  <rect x="242" y="309.164" width="20" height="20"/>
  <rect x="264" y="309.164" width="20" height="20"/>
  <rect x="286" y="309.164" width="20" height="20"/>
  <rect x="110" y="287.137" width="20" height="20"/>
  <rect x="132" y="287.137" width="20" height="20"/>
  <rect x="154" y="287.137" width="20" height="20"/>
  <rect x="176" y="287.137" width="20" height="20"/>
  <rect x="198" y="287.137" width="20" height="20"/>
  <rect x="220" y="287.137" width="20" height="20"/>
  <rect x="242" y="287.137" width="20" height="20"/>
  <rect x="264" y="287.137" width="20" height="20"/>
  <rect x="110" y="265.109" width="20" height="20"/>
  <rect x="132" y="265.109" width="20" height="20"/>
  <rect x="154" y="265.109" width="20" height="20"/>
  <rect x="176" y="265.109" width="20" height="20"/>
  <rect x="198" y="265.109" width="20" height="20"/>
  <rect x="220" y="265.109" width="20" height="20"/>
  <rect x="242" y="265.109" width="20" height="20"/>
  <rect x="264" y="265.109" width="20" height="20"/>
  <rect x="88" y="243.082" width="20" height="20"/>
  <rect x="110" y="243.082" width="20" height="20"/>
  <rect x="132" y="243.082" width="20" height="20"/>
  <rect x="154" y="243.082" width="20" height="20"/>
  <rect x="176" y="243.082" width="20" height="20"/>
  <rect x="198" y="243.082" width="20" height="20"/>
  <rect x="220" y="243.082" width="20" height="20"/>
  <rect x="242" y="243.082" width="20" height="20"/>
  <rect x="264" y="243.082" width="20" height="20"/>
  <rect x="286" y="243.082" width="20" height="20"/>
  <rect x="88" y="221.055" width="20" height="20"/>
  <rect x="110" y="221.055" width="20" height="20"/>
  <rect x="132" y="221.055" width="20" height="20"/>
  <rect x="154" y="221.055" width="20" height="20"/>
  <rect x="176" y="221.055" width="20" height="20"/>
  <rect x="198" y="221.055" width="20" height="20"/>
  <rect x="220" y="221.055" width="20" height="20"/>
  <rect x="242" y="221.055" width="20" height="20"/>
  <rect x="264" y="221.055" width="20" height="20"/>
  <rect x="286" y="221.055" width="20" height="20"/>
  <rect x="88" y="199.027" width="20" height="20"/>
  <rect x="110" y="199.027" width="20" height="20"/>
  <rect x="132" y="199.027" width="20" height="20"/>
  <rect x="154" y="199.027" width="20" height="20"/>
  <rect x="176" y="199.027" width="20" height="20"/>
  <rect x="198" y="199.027" width="20" height="20"/>
  <rect x="220" y="199.027" width="20" height="20"/>
  <rect x="242" y="199.027" width="20" height="20"/>
  <rect x="264" y="199.027" width="20" height="20"/>
  <rect x="286" y="199.027" width="20" height="20"/>
  <rect x="110" y="177" width="20" height="20"/>
  <rect x="132" y="177" width="20" height="20"/>
  <rect x="154" y="177" width="20" height="20"/>
  <rect x="176" y="177" width="20" height="20"/>
  <rect x="198" y="177" width="20" height="20"/>
  <rect x="220" y="177" width="20" height="20"/>
  <rect x="242" y="177" width="20" height="20"/>
  <rect x="264" y="177" width="20" height="20"/>
  <rect x="418" y="67" width="20" height="20"/>
  <rect x="396" y="45" width="20" height="20"/>
  <rect x="440" y="45" width="20" height="20"/>
  <rect x="418" y="23" width="20" height="20"/>
  <rect x="286" y="133" width="20" height="20"/>
  <rect x="308" y="133" width="20" height="20"/>
  <rect x="330" y="133" width="20" height="20"/>
  <rect x="264" y="111" width="20" height="20"/>
  <rect x="352" y="111" width="20" height="20"/>
  <rect x="264" y="89" width="20" height="20"/>
  <rect x="352" y="89" width="20" height="20"/>
  <rect x="264" y="67" width="20" height="20"/>
  <rect x="352" y="67" width="20" height="20"/>
  <rect x="264" y="45" width="20" height="20"/>
  <rect x="352" y="45" width="20" height="20"/>
  <rect x="264" y="23" width="20" height="20"/>
  <rect x="352" y="23" width="20" height="20"/>
  <rect x="286" y="1" width="20" height="20"/>
  <rect x="308" y="1" width="20" height="20"/>
  <rect x="330" y="1" width="20" height="20"/>
  <rect x="154" y="133" width="20" height="20"/>
  <rect x="176" y="133" width="20" height="20"/>
  <rect x="198" y="133" width="20" height="20"/>
  <rect x="176" y="111" width="20" height="20"/>
  <rect x="176" y="89" width="20" height="20"/>
  <rect x="176" y="67" width="20" height="20"/>
  <rect x="176" y="45" width="20" height="20"/>
  <rect x="154" y="23" width="20" height="20"/>
  <rect x="176" y="23" width="20" height="20"/>
  <rect x="176" y="1" width="20" height="20"/>
  <rect x="0" y="133" width="20" height="20"/>
  <rect x="22" y="133" width="20" height="20"/>
  <rect x="44" y="133" width="20" height="20"/>
  <rect x="66" y="133" width="20" height="20"/>
  <rect x="88" y="133" width="20" height="20"/>
  <rect x="0" y="111" width="20" height="20"/>
  <rect x="0" y="89" width="20" height="20"/>
  <rect x="22" y="67" width="20" height="20"/>
  <rect x="44" y="67" width="20" height="20"/>
  <rect x="66" y="67" width="20" height="20"/>
  <rect x="88" y="45" width="20" height="20"/>
  <rect x="0" y="23" width="20" height="20"/>
  <rect x="88" y="23" width="20" height="20"/>
  <rect x="22" y="1" width="20" height="20"/>
  <rect x="44" y="1" width="20" height="20"/>
  <rect x="66" y="1" width="20" height="20"/>
  <rect x="418" y="529" width="20" height="20"/>
  <rect x="396" y="507" width="20" height="20"/>
  <rect x="440" y="507" width="20" height="20"/>
  <rect x="418" y="485" width="20" height="20"/>
  <rect x="286" y="595" width="20" height="20"/>
  <rect x="308" y="595" width="20" height="20"/>
  <rect x="330" y="595" width="20" height="20"/>
  <rect x="264" y="573" width="20" height="20"/>
  <rect x="352" y="573" width="20" height="20"/>
  <rect x="264" y="551" width="20" height="20"/>
  <rect x="352" y="551" width="20" height="20"/>
  <rect x="264" y="529" width="20" height="20"/>
  <rect x="352" y="529" width="20" height="20"/>
  <rect x="264" y="507" width="20" height="20"/>
  <rect x="352" y="507" width="20" height="20"/>
  <rect x="264" y="485" width="20" height="20"/>
  <rect x="352" y="485" width="20" height="20"/>
  <rect x="286" y="463" width="20" height="20"/>
  <rect x="308" y="463" width="20" height="20"/>
  <rect x="330" y="463" width="20" height="20"/>
  <rect x="154" y="595" width="20" height="20"/>
  <rect x="176" y="595" width="20" height="20"/>
  <rect x="198" y="595" width="20" height="20"/>
  <rect x="176" y="573" width="20" height="20"/>
  <rect x="176" y="551" width="20" height="20"/>
  <rect x="176" y="529" width="20" height="20"/>
  <rect x="176" y="507" width="20" height="20"/>
  <rect x="154" y="485" width="20" height="20"/>
  <rect x="176" y="485" width="20" height="20"/>
  <rect x="176" y="463" width="20" height="20"/>
  <rect x="0" y="595" width="20" height="20"/>
  <rect x="22" y="595" width="20" height="20"/>
  <rect x="44" y="595" width="20" height="20"/>
  <rect x="66" y="595" width="20" height="20"/>
  <rect x="88" y="595" width="20" height="20"/>
  <rect x="0" y="573" width="20" height="20"/>
  <rect x="0" y="551" width="20" height="20"/>
  <rect x="22" y="529" width="20" height="20"/>
  <rect x="44" y="529" width="20" height="20"/>
  <rect x="66" y="529" width="20" height="20"/>
  <rect x="88" y="507" width="20" height="20"/>
  <rect x="0" y="485" width="20" height="20"/>
  <rect x="88" y="485" width="20" height="20"/>
  <rect x="22" y="463" width="20" height="20"/>
  <rect x="44" y="463" width="20" height="20"/>
  <rect x="66" y="463" width="20" height="20"/>
</svg>
