<svg width="100%" height="100%" viewBox="0 0 416 615" version="1.1" xmlns="http://www.w3.org/2000/svg" xmlns:xlink="http://www.w3.org/1999/xlink" xml:space="preserve" style="fill-rule:evenodd;clip-rule:evenodd;stroke-linejoin:round;stroke-miterlimit:2;">
  <rect x="220" y="419.301" width="20" height="20"/>
  <rect x="242" y="419.301" width="20" height="20"/>
  <rect x="264" y="419.301" width="20" height="20"/>
  <rect x="286" y="419.301" width="20" height="20"/>
  <rect x="308" y="419.301" width="20" height="20"/>
  <rect x="330" y="419.301" width="20" height="20"/>
  <rect x="352" y="419.301" width="20" height="20"/>
  <rect x="374" y="419.301" width="20" height="20"/>
  <rect x="0" y="419.301" width="20" height="20"/>
  <rect x="22" y="419.301" width="20" height="20"/>
  <rect x="44" y="419.301" width="20" height="20"/>
  <rect x="66" y="419.301" width="20" height="20"/>
  <rect x="88" y="419.301" width="20" height="20"/>
  <rect x="110" y="419.301" width="20" height="20"/>
  <rect x="132" y="419.301" width="20" height="20"/>
  <rect x="154" y="419.301" width="20" height="20"/>
  <rect x="220" y="397.274" width="20" height="20"/>
  <rect x="242" y="397.274" width="20" height="20"/>
  <rect x="264" y="397.274" width="20" height="20"/>
  <rect x="286" y="397.274" width="20" height="20"/>
  <rect x="308" y="397.274" width="20" height="20"/>
  <rect x="330" y="397.274" width="20" height="20"/>
  <rect x="352" y="397.274" width="20" height="20"/>
  <rect x="374" y="397.274" width="20" height="20"/>
  <rect x="0" y="397.274" width="20" height="20"/>
  <rect x="22" y="397.274" width="20" height="20"/>
  <rect x="44" y="397.274" width="20" height="20"/>
  <rect x="66" y="397.274" width="20" height="20"/>
  <rect x="88" y="397.274" width="20" height="20"/>
  <rect x="110" y="397.274" width="20" height="20"/>
  <rect x="132" y="397.274" width="20" height="20"/>
  <rect x="154" y="397.274" width="20" height="20"/>
  <rect x="220" y="353.219" width="20" height="20"/>
  <rect x="352" y="353.219" width="20" height="20"/>
  <rect x="88" y="353.219" width="20" height="20"/>
  <rect x="330" y="331.192" width="20" height="20"/>
  <rect x="66" y="331.192" width="20" height="20"/>
  <rect x="198" y="331.192" width="20" height="20"/>
  <rect x="308" y="309.164" width="20" height="20"/>
  <rect x="44" y="309.164" width="20" height="20"/>
  <rect x="176" y="309.164" width="20" height="20"/>
  <rect x="308" y="287.137" width="20" height="20"/>
  <rect x="44" y="287.137" width="20" height="20"/>
  <rect x="176" y="287.137" width="20" height="20"/>
  <rect x="330" y="265.109" width="20" height="20"/>
  <rect x="66" y="265.109" width="20" height="20"/>
  <rect x="198" y="265.109" width="20" height="20"/>
  <rect x="220" y="243.082" width="20" height="20"/>
  <rect x="352" y="243.082" width="20" height="20"/>
  <rect x="88" y="243.082" width="20" height="20"/>
  <rect x="242" y="221.055" width="20" height="20"/>
  <rect x="374" y="221.055" width="20" height="20"/>
  <rect x="110" y="221.055" width="20" height="20"/>
  <rect x="242" y="199.027" width="20" height="20"/>
  <rect x="374" y="199.027" width="20" height="20"/>
  <rect x="110" y="199.027" width="20" height="20"/>
  <rect x="220" y="177" width="20" height="20"/>
  <rect x="352" y="177" width="20" height="20"/>
  <rect x="88" y="177" width="20" height="20"/>
  <rect x="242" y="132.91" width="20" height="20"/>
  <rect x="264" y="132.91" width="20" height="20"/>
  <rect x="286" y="132.91" width="20" height="20"/>
  <rect x="220" y="110.91" width="20" height="20"/>
  <rect x="308" y="110.91" width="20" height="20"/>
  <rect x="220" y="88.91" width="20" height="20"/>
  <rect x="308" y="88.91" width="20" height="20"/>
  <rect x="220" y="66.91" width="20" height="20"/>
  <rect x="308" y="66.91" width="20" height="20"/>
  <rect x="220" y="44.91" width="20" height="20"/>
  <rect x="308" y="44.91" width="20" height="20"/>
  <rect x="220" y="22.91" width="20" height="20"/>
  <rect x="308" y="22.91" width="20" height="20"/>
  <rect x="242" y="0.91" width="20" height="20"/>
  <rect x="264" y="0.91" width="20" height="20"/>
  <rect x="286" y="0.91" width="20" height="20"/>
  <rect x="110" y="132.973" width="20" height="20"/>
  <rect x="132" y="132.973" width="20" height="20"/>
  <rect x="154" y="132.973" width="20" height="20"/>
  <rect x="88" y="110.973" width="20" height="20"/>
  <rect x="176" y="110.973" width="20" height="20"/>
  <rect x="88" y="88.973" width="20" height="20"/>
  <rect x="176" y="88.973" width="20" height="20"/>
  <rect x="88" y="66.973" width="20" height="20"/>
  <rect x="110" y="66.973" width="20" height="20"/>
  <rect x="132" y="66.973" width="20" height="20"/>
  <rect x="154" y="66.973" width="20" height="20"/>
  <rect x="88" y="44.973" width="20" height="20"/>
  <rect x="88" y="22.973" width="20" height="20"/>
  <rect x="110" y="0.973" width="20" height="20"/>
  <rect x="132" y="0.973" width="20" height="20"/>
  <rect x="154" y="0.973" width="20" height="20"/>
  <rect x="374" y="66.91" width="20" height="20"/>
  <rect x="352" y="44.91" width="20" height="20"/>
  <rect x="396" y="44.91" width="20" height="20"/>
  <rect x="374" y="22.91" width="20" height="20"/>
  <rect x="242" y="594.938" width="20" height="20"/>
  <rect x="264" y="594.938" width="20" height="20"/>
  <rect x="286" y="594.938" width="20" height="20"/>
  <rect x="220" y="572.938" width="20" height="20"/>
  <rect x="308" y="572.938" width="20" height="20"/>
  <rect x="220" y="550.938" width="20" height="20"/>
  <rect x="308" y="550.938" width="20" height="20"/>
  <rect x="220" y="528.938" width="20" height="20"/>
  <rect x="308" y="528.938" width="20" height="20"/>
  <rect x="220" y="506.938" width="20" height="20"/>
  <rect x="308" y="506.938" width="20" height="20"/>
  <rect x="220" y="484.938" width="20" height="20"/>
  <rect x="308" y="484.938" width="20" height="20"/>
  <rect x="242" y="462.938" width="20" height="20"/>
  <rect x="264" y="462.938" width="20" height="20"/>
  <rect x="286" y="462.938" width="20" height="20"/>
  <rect x="110" y="595" width="20" height="20"/>
  <rect x="132" y="595" width="20" height="20"/>
  <rect x="154" y="595" width="20" height="20"/>
  <rect x="88" y="573" width="20" height="20"/>
  <rect x="176" y="573" width="20" height="20"/>
  <rect x="88" y="551" width="20" height="20"/>
  <rect x="176" y="551" width="20" height="20"/>
  <rect x="88" y="529" width="20" height="20"/>
  <rect x="110" y="529" width="20" height="20"/>
  <rect x="132" y="529" width="20" height="20"/>
  <rect x="154" y="529" width="20" height="20"/>
  <rect x="88" y="507" width="20" height="20"/>
  <rect x="88" y="485" width="20" height="20"/>
  <rect x="110" y="463" width="20" height="20"/>
  <rect x="132" y="463" width="20" height="20"/>
  <rect x="154" y="463" width="20" height="20"/>
  <rect x="374" y="528.938" width="20" height="20"/>
  <rect x="352" y="506.938" width="20" height="20"/>
  <rect x="396" y="506.938" width="20" height="20"/>
  <rect x="374" y="484.938" width="20" height="20"/>
</svg>
