<svg width="100%" height="100%" viewBox="0 0 482 593" version="1.1" xmlns="http://www.w3.org/2000/svg" xmlns:xlink="http://www.w3.org/1999/xlink" xml:space="preserve" style="fill-rule:evenodd;clip-rule:evenodd;stroke-linejoin:round;stroke-miterlimit:2;">
  <rect x="44" y="397.205" width="20" height="20"/>
  <rect x="66" y="397.205" width="20" height="20"/>
  <rect x="88" y="397.205" width="20" height="20"/>
  <rect x="110" y="397.205" width="20" height="20"/>
  <rect x="132" y="397.205" width="20" height="20"/>
  <rect x="154" y="397.205" width="20" height="20"/>
  <rect x="176" y="397.205" width="20" height="20"/>
  <rect x="198" y="397.205" width="20" height="20"/>
  <rect x="220" y="397.205" width="20" height="20"/>
  <rect x="242" y="397.205" width="20" height="20"/>
  <rect x="44" y="375.178" width="20" height="20"/>
  <rect x="66" y="375.178" width="20" height="20"/>
  <rect x="88" y="375.178" width="20" height="20"/>
  <rect x="110" y="375.178" width="20" height="20"/>
  <rect x="132" y="375.178" width="20" height="20"/>
  <rect x="44" y="353.151" width="20" height="20"/>
  <rect x="66" y="353.151" width="20" height="20"/>
  <rect x="88" y="353.151" width="20" height="20"/>
  <rect x="154" y="353.151" width="20" height="20"/>
  <rect x="44" y="331.123" width="20" height="20"/>
  <rect x="66" y="331.123" width="20" height="20"/>
  <rect x="110" y="331.123" width="20" height="20" style="fill-opacity:0.6;"/>
  <rect x="132" y="331.123" width="20" height="20"/>
  <rect x="154" y="331.123" width="20" height="20"/>
  <rect x="176" y="331.123" width="20" height="20"/>
  <rect x="44" y="309.096" width="20" height="20"/>
  <rect x="66" y="309.096" width="20" height="20"/>
  <rect x="110" y="309.096" width="20" height="20" style="fill-opacity:0.6;"/>
  <rect x="132" y="309.096" width="20" height="20" style="fill-opacity:0.6;"/>
  <rect x="154" y="309.096" width="20" height="20"/>
  <rect x="176" y="309.096" width="20" height="20"/>
  <rect x="44" y="287.068" width="20" height="20"/>
  <rect x="88" y="287.068" width="20" height="20" style="fill-opacity:0.6;"/>
  <rect x="110" y="287.068" width="20" height="20" style="fill-opacity:0.6;"/>
  <rect x="132" y="287.068" width="20" height="20" style="fill-opacity:0.6;"/>
  <rect x="154" y="287.068" width="20" height="20" style="fill-opacity:0.6;"/>
  <rect x="176" y="287.068" width="20" height="20"/>
  <rect x="198" y="287.068" width="20" height="20"/>
  <rect x="44" y="265.041" width="20" height="20"/>
  <rect x="110" y="265.041" width="20" height="20" style="fill-opacity:0.6;"/>
  <rect x="132" y="265.041" width="20" height="20" style="fill-opacity:0.6;"/>
  <rect x="154" y="265.041" width="20" height="20" style="fill-opacity:0.6;"/>
  <rect x="176" y="265.041" width="20" height="20" style="fill-opacity:0.6;"/>
  <rect x="198" y="265.041" width="20" height="20"/>
  <rect x="44" y="243.014" width="20" height="20"/>
  <rect x="154" y="243.014" width="20" height="20" style="fill-opacity:0.6;"/>
  <rect x="176" y="243.014" width="20" height="20" style="fill-opacity:0.6;"/>
  <rect x="198" y="243.014" width="20" height="20" style="fill-opacity:0.6;"/>
  <rect x="220" y="243.014" width="20" height="20"/>
  <rect x="242" y="243.014" width="20" height="20"/>
  <rect x="44" y="220.986" width="20" height="20"/>
  <rect x="198" y="220.986" width="20" height="20"/>
  <rect x="220" y="220.986" width="20" height="20"/>
  <rect x="242" y="220.986" width="20" height="20"/>
  <rect x="44" y="198.959" width="20" height="20"/>
  <rect x="198" y="198.959" width="20" height="20"/>
  <rect x="220" y="198.959" width="20" height="20"/>
  <rect x="242" y="198.959" width="20" height="20"/>
  <rect x="44" y="176.932" width="20" height="20"/>
  <rect x="198" y="176.932" width="20" height="20"/>
  <rect x="220" y="176.932" width="20" height="20"/>
  <rect x="242" y="176.932" width="20" height="20"/>
  <rect x="44" y="154.904" width="20" height="20"/>
  <rect x="154" y="154.904" width="20" height="20"/>
  <rect x="176" y="154.904" width="20" height="20"/>
  <rect x="198" y="154.904" width="20" height="20" style="fill-opacity:0.6;"/>
  <rect x="220" y="154.904" width="20" height="20"/>
  <rect x="242" y="154.904" width="20" height="20"/>
  <rect x="44" y="132.904" width="20" height="20"/>
  <rect x="110" y="132.904" width="20" height="20"/>
  <rect x="132" y="132.904" width="20" height="20"/>
  <rect x="154" y="132.904" width="20" height="20"/>
  <rect x="176" y="132.904" width="20" height="20" style="fill-opacity:0.6;"/>
  <rect x="198" y="132.904" width="20" height="20" style="fill-opacity:0.6;"/>
  <rect x="44" y="110.877" width="20" height="20"/>
  <rect x="88" y="110.877" width="20" height="20"/>
  <rect x="110" y="110.877" width="20" height="20"/>
  <rect x="132" y="110.877" width="20" height="20"/>
  <rect x="154" y="110.877" width="20" height="20" style="fill-opacity:0.6;"/>
  <rect x="176" y="110.877" width="20" height="20" style="fill-opacity:0.6;"/>
  <rect x="198" y="110.877" width="20" height="20" style="fill-opacity:0.6;"/>
  <rect x="44" y="88.849" width="20" height="20"/>
  <rect x="66" y="88.849" width="20" height="20"/>
  <rect x="110" y="88.849" width="20" height="20"/>
  <rect x="132" y="88.849" width="20" height="20" style="fill-opacity:0.6;"/>
  <rect x="154" y="88.849" width="20" height="20" style="fill-opacity:0.6;"/>
  <rect x="176" y="88.849" width="20" height="20" style="fill-opacity:0.6;"/>
  <rect x="44" y="66.822" width="20" height="20"/>
  <rect x="66" y="66.822" width="20" height="20"/>
  <rect x="110" y="66.822" width="20" height="20" style="fill-opacity:0.6;"/>
  <rect x="132" y="66.822" width="20" height="20" style="fill-opacity:0.6;"/>
  <rect x="154" y="66.822" width="20" height="20" style="fill-opacity:0.6;"/>
  <rect x="176" y="66.822" width="20" height="20" style="fill-opacity:0.6;"/>
  <rect x="44" y="44.795" width="20" height="20"/>
  <rect x="66" y="44.795" width="20" height="20"/>
  <rect x="88" y="44.795" width="20" height="20"/>
  <rect x="154" y="44.795" width="20" height="20" style="fill-opacity:0.6;"/>
  <rect x="44" y="22.767" width="20" height="20"/>
  <rect x="66" y="22.767" width="20" height="20"/>
  <rect x="88" y="22.767" width="20" height="20"/>
  <rect x="110" y="22.767" width="20" height="20"/>
  <rect x="132" y="22.767" width="20" height="20"/>
  <rect x="44" y="0.74" width="20" height="20"/>
  <rect x="66" y="0.74" width="20" height="20"/>
  <rect x="88" y="0.74" width="20" height="20"/>
  <rect x="110" y="0.74" width="20" height="20"/>
  <rect x="132" y="0.74" width="20" height="20"/>
  <rect x="154" y="0.74" width="20" height="20"/>
  <rect x="176" y="0.74" width="20" height="20"/>
  <rect x="198" y="0.74" width="20" height="20"/>
  <rect x="220" y="0.74" width="20" height="20"/>
  <rect x="242" y="0.74" width="20" height="20"/>
  <rect x="264" y="397.205" width="20" height="20"/>
  <rect x="286" y="397.205" width="20" height="20"/>
  <rect x="308" y="397.205" width="20" height="20"/>
  <rect x="330" y="397.205" width="20" height="20"/>
  <rect x="352" y="397.205" width="20" height="20"/>
  <rect x="374" y="397.205" width="20" height="20"/>
  <rect x="396" y="397.205" width="20" height="20"/>
  <rect x="418" y="397.205" width="20" height="20"/>
  <rect x="440" y="397.205" width="20" height="20"/>
  <rect x="352" y="375.178" width="20" height="20"/>
  <rect x="374" y="375.178" width="20" height="20"/>
  <rect x="396" y="375.178" width="20" height="20"/>
  <rect x="418" y="375.178" width="20" height="20"/>
  <rect x="440" y="375.178" width="20" height="20"/>
  <rect x="330" y="353.151" width="20" height="20" style="fill-opacity:0.6;"/>
  <rect x="396" y="353.151" width="20" height="20"/>
  <rect x="418" y="353.151" width="20" height="20"/>
  <rect x="440" y="353.151" width="20" height="20"/>
  <rect x="308" y="331.123" width="20" height="20" style="fill-opacity:0.6;"/>
  <rect x="330" y="331.123" width="20" height="20" style="fill-opacity:0.6;"/>
  <rect x="352" y="331.123" width="20" height="20" style="fill-opacity:0.6;"/>
  <rect x="374" y="331.123" width="20" height="20" style="fill-opacity:0.6;"/>
  <rect x="418" y="331.123" width="20" height="20"/>
  <rect x="440" y="331.123" width="20" height="20"/>
  <rect x="308" y="309.096" width="20" height="20" style="fill-opacity:0.6;"/>
  <rect x="330" y="309.096" width="20" height="20" style="fill-opacity:0.6;"/>
  <rect x="352" y="309.096" width="20" height="20" style="fill-opacity:0.6;"/>
  <rect x="374" y="309.096" width="20" height="20"/>
  <rect x="418" y="309.096" width="20" height="20"/>
  <rect x="440" y="309.096" width="20" height="20"/>
  <rect x="286" y="287.068" width="20" height="20" style="fill-opacity:0.6;"/>
  <rect x="308" y="287.068" width="20" height="20" style="fill-opacity:0.6;"/>
  <rect x="330" y="287.068" width="20" height="20" style="fill-opacity:0.6;"/>
  <rect x="352" y="287.068" width="20" height="20"/>
  <rect x="374" y="287.068" width="20" height="20"/>
  <rect x="396" y="287.068" width="20" height="20"/>
  <rect x="440" y="287.068" width="20" height="20"/>
  <rect x="286" y="265.041" width="20" height="20" style="fill-opacity:0.6;"/>
  <rect x="308" y="265.041" width="20" height="20" style="fill-opacity:0.6;"/>
  <rect x="330" y="265.041" width="20" height="20"/>
  <rect x="352" y="265.041" width="20" height="20"/>
  <rect x="374" y="265.041" width="20" height="20"/>
  <rect x="440" y="265.041" width="20" height="20"/>
  <rect x="264" y="243.014" width="20" height="20"/>
  <rect x="286" y="243.014" width="20" height="20" style="fill-opacity:0.6;"/>
  <rect x="308" y="243.014" width="20" height="20"/>
  <rect x="330" y="243.014" width="20" height="20"/>
  <rect x="440" y="243.014" width="20" height="20"/>
  <rect x="264" y="220.986" width="20" height="20"/>
  <rect x="286" y="220.986" width="20" height="20"/>
  <rect x="440" y="220.986" width="20" height="20"/>
  <rect x="264" y="198.959" width="20" height="20"/>
  <rect x="286" y="198.959" width="20" height="20"/>
  <rect x="440" y="198.959" width="20" height="20"/>
  <rect x="264" y="176.932" width="20" height="20"/>
  <rect x="286" y="176.932" width="20" height="20"/>
  <rect x="440" y="176.932" width="20" height="20"/>
  <rect x="264" y="154.904" width="20" height="20"/>
  <rect x="286" y="154.904" width="20" height="20" style="fill-opacity:0.6;"/>
  <rect x="308" y="154.904" width="20" height="20" style="fill-opacity:0.6;"/>
  <rect x="330" y="154.904" width="20" height="20" style="fill-opacity:0.6;"/>
  <rect x="440" y="154.904" width="20" height="20"/>
  <rect x="286" y="132.904" width="20" height="20"/>
  <rect x="308" y="132.904" width="20" height="20" style="fill-opacity:0.6;"/>
  <rect x="330" y="132.904" width="20" height="20" style="fill-opacity:0.6;"/>
  <rect x="352" y="132.904" width="20" height="20" style="fill-opacity:0.6;"/>
  <rect x="374" y="132.904" width="20" height="20" style="fill-opacity:0.6;"/>
  <rect x="440" y="132.904" width="20" height="20"/>
  <rect x="286" y="110.877" width="20" height="20"/>
  <rect x="308" y="110.877" width="20" height="20"/>
  <rect x="330" y="110.877" width="20" height="20" style="fill-opacity:0.6;"/>
  <rect x="352" y="110.877" width="20" height="20" style="fill-opacity:0.6;"/>
  <rect x="374" y="110.877" width="20" height="20" style="fill-opacity:0.6;"/>
  <rect x="396" y="110.877" width="20" height="20" style="fill-opacity:0.6;"/>
  <rect x="440" y="110.877" width="20" height="20"/>
  <rect x="308" y="88.849" width="20" height="20"/>
  <rect x="330" y="88.849" width="20" height="20"/>
  <rect x="352" y="88.849" width="20" height="20" style="fill-opacity:0.6;"/>
  <rect x="374" y="88.849" width="20" height="20" style="fill-opacity:0.6;"/>
  <rect x="418" y="88.849" width="20" height="20"/>
  <rect x="440" y="88.849" width="20" height="20"/>
  <rect x="308" y="66.822" width="20" height="20"/>
  <rect x="330" y="66.822" width="20" height="20"/>
  <rect x="352" y="66.822" width="20" height="20"/>
  <rect x="374" y="66.822" width="20" height="20" style="fill-opacity:0.6;"/>
  <rect x="418" y="66.822" width="20" height="20"/>
  <rect x="440" y="66.822" width="20" height="20"/>
  <rect x="330" y="44.795" width="20" height="20"/>
  <rect x="396" y="44.795" width="20" height="20"/>
  <rect x="418" y="44.795" width="20" height="20"/>
  <rect x="440" y="44.795" width="20" height="20"/>
  <rect x="352" y="22.767" width="20" height="20"/>
  <rect x="374" y="22.767" width="20" height="20"/>
  <rect x="396" y="22.767" width="20" height="20"/>
  <rect x="418" y="22.767" width="20" height="20"/>
  <rect x="440" y="22.767" width="20" height="20"/>
  <rect x="264" y="0.74" width="20" height="20"/>
  <rect x="286" y="0.74" width="20" height="20"/>
  <rect x="308" y="0.74" width="20" height="20"/>
  <rect x="330" y="0.74" width="20" height="20"/>
  <rect x="352" y="0.74" width="20" height="20"/>
  <rect x="374" y="0.74" width="20" height="20"/>
  <rect x="396" y="0.74" width="20" height="20"/>
  <rect x="418" y="0.74" width="20" height="20"/>
  <rect x="440" y="0.74" width="20" height="20"/>
  <rect x="0" y="573.26" width="20" height="20"/>
  <rect x="22" y="573.26" width="20" height="20"/>
  <rect x="44" y="573.26" width="20" height="20"/>
  <rect x="22" y="551.26" width="20" height="20"/>
  <rect x="22" y="529.26" width="20" height="20"/>
  <rect x="22" y="507.26" width="20" height="20"/>
  <rect x="22" y="485.26" width="20" height="20"/>
  <rect x="-0" y="463.26" width="20" height="20"/>
  <rect x="22" y="463.26" width="20" height="20"/>
  <rect x="22" y="441.26" width="20" height="20"/>
  <rect x="440" y="573.26" width="20" height="20"/>
  <rect x="462" y="573.26" width="20" height="20"/>
  <rect x="374" y="551.26" width="20" height="20"/>
  <rect x="440" y="551.26" width="20" height="20"/>
  <rect x="462" y="551.26" width="20" height="20"/>
  <rect x="396" y="529.26" width="20" height="20"/>
  <rect x="418" y="507.26" width="20" height="20"/>
  <rect x="440" y="485.26" width="20" height="20"/>
  <rect x="374" y="463.26" width="20" height="20"/>
  <rect x="396" y="463.26" width="20" height="20"/>
  <rect x="462" y="463.26" width="20" height="20"/>
  <rect x="374" y="441.26" width="20" height="20"/>
  <rect x="396" y="441.26" width="20" height="20"/>
  <rect x="264" y="573.26" width="20" height="20"/>
  <rect x="286" y="573.26" width="20" height="20"/>
  <rect x="308" y="573.26" width="20" height="20"/>
  <rect x="242" y="551.26" width="20" height="20"/>
  <rect x="330" y="551.26" width="20" height="20"/>
  <rect x="242" y="529.26" width="20" height="20"/>
  <rect x="330" y="529.26" width="20" height="20"/>
  <rect x="242" y="507.26" width="20" height="20"/>
  <rect x="330" y="507.26" width="20" height="20"/>
  <rect x="242" y="485.26" width="20" height="20"/>
  <rect x="330" y="485.26" width="20" height="20"/>
  <rect x="242" y="463.26" width="20" height="20"/>
  <rect x="330" y="463.26" width="20" height="20"/>
  <rect x="264" y="441.26" width="20" height="20"/>
  <rect x="286" y="441.26" width="20" height="20"/>
  <rect x="308" y="441.26" width="20" height="20"/>
  <rect x="132" y="573.26" width="20" height="20"/>
  <rect x="154" y="573.26" width="20" height="20"/>
  <rect x="176" y="573.26" width="20" height="20"/>
  <rect x="110" y="551.26" width="20" height="20"/>
  <rect x="198" y="551.26" width="20" height="20"/>
  <rect x="110" y="529.26" width="20" height="20"/>
  <rect x="198" y="529.26" width="20" height="20"/>
  <rect x="110" y="507.26" width="20" height="20"/>
  <rect x="198" y="507.26" width="20" height="20"/>
  <rect x="110" y="485.26" width="20" height="20"/>
  <rect x="198" y="485.26" width="20" height="20"/>
  <rect x="110" y="463.26" width="20" height="20"/>
  <rect x="198" y="463.26" width="20" height="20"/>
  <rect x="132" y="441.26" width="20" height="20"/>
  <rect x="154" y="441.26" width="20" height="20"/>
  <rect x="176" y="441.26" width="20" height="20"/>
</svg>
