<svg width="100%" height="100%" viewBox="0 0 2066 2066" version="1.1" xmlns="http://www.w3.org/2000/svg" xmlns:xlink="http://www.w3.org/1999/xlink" xml:space="preserve" xmlns:serif="http://www.serif.com/" style="fill-rule:evenodd;clip-rule:evenodd;stroke-linejoin:round;stroke-miterlimit:2;">
  <path d="M1033.53,0.493c137.74,-0 275.053,27.547 401.926,81.231c309.995,131.169 542.534,413.758 610.064,743.687c24.554,119.96 27.585,244.264 9.091,365.301c-15.371,100.598 -45.832,198.785 -90.018,290.452c-50.428,104.616 -118.658,200.502 -200.77,282.614c-93.968,93.968 -205.964,169.676 -328.367,221.469c-126.873,53.684 -264.186,81.231 -401.926,81.231c-137.74,0 -275.054,-27.547 -401.926,-81.231c-122.403,-51.793 -234.399,-127.501 -328.367,-221.469c-82.113,-82.112 -150.343,-177.998 -200.77,-282.614c-44.186,-91.667 -74.647,-189.854 -90.018,-290.452c-18.494,-121.037 -15.463,-245.341 9.091,-365.301c67.53,-329.929 300.069,-612.518 610.064,-743.687c126.872,-53.684 264.186,-81.231 401.926,-81.231Zm-283.115,1387.74c35.502,28.277 75.27,51.234 117.513,67.834l0.045,482.649c-207.305,-37.825 -399.115,-148.561 -535.549,-309.156l417.991,-241.327Zm448.78,67.809c42.24,-16.607 82.005,-39.569 117.503,-67.852l418.009,241.286c-136.41,160.618 -328.215,271.363 -535.512,309.22l0,-482.654Zm-165.665,-752.717c44.036,0 87.896,8.815 128.461,25.963c39.123,16.538 74.922,40.756 104.95,70.784c30.028,30.028 54.245,65.826 70.784,104.95c12.741,30.139 20.97,62.162 24.256,94.724c14.41,142.755 -67.712,282.014 -199.99,337.931c-40.565,17.148 -84.425,25.963 -128.461,25.963c-44.036,-0 -87.896,-8.815 -128.461,-25.963c-39.123,-16.538 -74.922,-40.756 -104.95,-70.784c-30.028,-30.028 -54.245,-65.827 -70.784,-104.95c-12.741,-30.14 -20.97,-62.162 -24.257,-94.724c-14.409,-142.755 67.713,-282.014 199.991,-337.931c40.565,-17.148 84.425,-25.963 128.461,-25.963Zm-448.78,262.348c-6.738,44.884 -6.735,90.803 0.01,135.686l-417.964,241.364c-70.895,-198.444 -70.9,-419.924 -0.037,-618.377l417.991,241.327Zm897.56,135.619c6.738,-44.885 6.735,-90.803 -0.01,-135.686l417.964,-241.364c70.895,198.444 70.9,419.924 0.037,618.377l-417.991,-241.327Zm-614.445,-490.37c-42.24,16.608 -82.005,39.57 -117.503,67.852l-418.009,-241.285c136.41,-160.618 328.215,-271.363 535.512,-309.22l-0,482.653Zm448.78,67.81c-35.503,-28.277 -75.27,-51.234 -117.513,-67.834l-0.045,-482.649c207.305,37.825 399.115,148.561 535.548,309.156l-417.99,241.327Z"/>
</svg>
