<svg class="screw-svg" width="100%" height="100%" viewBox="0 0 121 132" version="1.1" xmlns="http://www.w3.org/2000/svg" xmlns:xlink="http://www.w3.org/1999/xlink" xml:space="preserve" style="fill-rule:evenodd;clip-rule:evenodd;stroke-linecap:round;stroke-linejoin:round;stroke-miterlimit:1.5;fill:none;" overflow="visible">
  <path class="outline" d="M34.82,1.404l50.953,-0.646c-0,0 9.945,0.452 22.344,11.625c5.601,5.046 11.948,15.499 11.948,21.634c-0,6.135 -2.824,5.807 -7.991,5.807c-5.166,-0 -16.985,0.13 -16.985,0.13l-4.822,4.227l5.125,5.952l-6.282,5.125l5.951,5.29l-6.447,5.125l5.621,4.133l-4.795,5.291l5.952,5.29l-6.613,4.464l6.117,5.125l-5.621,5.29l5.621,5.125l-6.282,4.96l6.282,5.456l-6.117,4.629l5.952,4.463l-5.786,4.464l3.637,4.464l-2.646,1.653l-56.871,0.661l-0.661,-1.983l-6.117,-4.134l5.456,-5.621l-5.621,-4.298l5.951,-5.621l-5.951,-4.133l5.786,-5.952l-5.29,-4.133l4.959,-5.786l-4.959,-4.133l4.959,-5.621l-4.629,-4.795l4.795,-5.29l-5.621,-4.794l6.282,-5.621l-5.952,-4.133l5.952,-5.787l-5.29,-2.976l-0.662,-6.943l-20.764,-0.132c-0,-0 -4.373,-0.992 -4.861,-5.654c-0.363,-3.471 3.122,-13.039 12.011,-21.261c10.581,-9.787 21.982,-10.936 21.982,-10.936Z" />
  <path class="outline" d="M26.601,39.194l68.563,0.529" />
  <path d="M90.604,44.71l-58.359,4.629" />
  <path d="M89.447,55.125l-57.037,4.464" />
  <path d="M31.855,69.561l56.924,-3.915" />
  <path d="M31.537,79.613l57.983,-4.656" />
  <path d="M89.281,84.927l-57.533,4.1" />
  <path d="M89.413,95.111l-57.268,4.232" />
  <path d="M32.278,109.395l57.268,-3.571" />
  <path d="M31.748,119.314l57.533,-3.439" />
  <path d="M33.071,129.234l55.946,-4.63" />
</svg>